<svg version="1.1" id="Layer_1" xmlns="http://www.w3.org/2000/svg" xmlns:xlink="http://www.w3.org/1999/xlink" x="0px" y="0px"
	 width="100%" viewBox="0 0 1024 1024" enable-background="new 0 0 1024 1024" xml:space="preserve">
<path fill="#000000" opacity="1.000000" stroke="none" 
	d="
M604.047729,526.050659 
	C625.617004,505.123444 638.393372,480.060486 642.444885,450.662415 
	C643.190918,445.249451 642.935913,439.682037 642.938782,434.185791 
	C642.964355,385.019806 642.937622,335.853851 642.944397,286.687866 
	C642.945374,279.292938 647.529724,276.254425 654.405090,278.946594 
	C655.699707,279.453522 656.207886,280.334076 656.272278,281.577881 
	C656.341187,282.907990 656.343323,284.242523 656.343201,285.575104 
	C656.339600,335.407745 656.095276,385.241852 656.400696,435.072571 
	C656.644531,474.855347 642.201599,508.189850 613.533081,535.368896 
	C589.384521,558.262817 560.482239,571.442261 527.341187,574.330383 
	C473.534393,579.019470 429.172577,560.395874 395.565125,518.031555 
	C378.126099,496.048615 369.209534,470.567413 368.575470,442.210999 
	C367.405609,389.893250 368.459503,337.573853 368.039154,285.257141 
	C367.993011,279.515472 374.793579,276.113312 379.939667,279.153503 
	C380.930481,279.738861 381.226807,280.627747 381.263184,281.649811 
	C381.322418,283.314667 381.335327,284.981873 381.335602,286.648071 
	C381.343994,336.480713 381.287781,386.313477 381.381348,436.145935 
	C381.422882,458.269867 387.093567,478.970001 398.399933,497.988281 
	C418.016235,530.984680 447.258118,550.916321 484.450500,558.531616 
	C527.927490,567.433594 566.990479,557.116028 601.081421,528.511597 
	C601.974792,527.761963 602.881836,527.028564 604.047729,526.050659 
z"/>
<path fill="#000000" opacity="1.000000" stroke="none" 
	d="
M536.646545,534.635010 
	C568.913086,526.507080 593.454285,508.936737 608.701965,479.364746 
	C615.634888,465.918610 618.500000,451.411682 618.549744,436.444946 
	C618.716370,386.296753 618.617249,336.147644 618.623474,285.998901 
	C618.624329,279.456238 624.063477,276.171783 630.133911,279.008881 
	C631.346497,279.575562 631.852173,280.571228 631.945251,281.773499 
	C632.073547,283.431427 632.100525,285.100433 632.100342,286.764679 
	C632.094849,334.747528 631.738586,382.733551 632.186401,430.712097 
	C632.491089,463.356781 622.199829,491.587555 599.410950,514.880676 
	C582.420959,532.246582 561.562256,543.083984 537.737183,547.763733 
	C499.405945,555.292786 464.320801,547.406006 434.040985,522.722961 
	C407.200897,500.843842 392.952271,471.953674 392.773285,436.985016 
	C392.513153,386.171204 392.776794,335.354828 392.614258,284.540192 
	C392.597443,279.279144 394.915802,278.547089 399.278625,278.632385 
	C403.497498,278.714874 406.440033,278.681854 406.415863,284.525452 
	C406.208832,334.673340 406.887299,384.831482 406.127441,434.968750 
	C405.308929,488.980042 448.274078,529.129333 494.484314,535.769470 
	C508.462738,537.778198 522.374023,537.407654 536.646545,534.635010 
z"/>
<path fill="#000000" opacity="1.000000" stroke="none" 
	d="
M431.051025,415.000000 
	C431.286682,426.485199 430.063080,437.559723 431.821411,448.442566 
	C435.835205,473.284973 450.139954,490.883301 471.905853,502.573303 
	C506.041656,520.906860 548.639709,513.750610 574.981506,485.335083 
	C587.506653,471.823914 593.759888,455.700165 593.747803,437.181152 
	C593.715088,387.018921 593.737915,336.856659 593.740784,286.694427 
	C593.741211,279.333618 598.178589,276.360748 605.203247,278.937347 
	C606.722595,279.494629 607.203674,280.567596 607.242859,281.996399 
	C607.288635,283.661835 607.301941,285.328583 607.301819,286.994781 
	C607.297974,335.490509 606.617249,383.998169 607.473633,432.478638 
	C608.327881,480.841553 573.281616,518.799011 525.892578,524.902161 
	C489.152100,529.633972 458.118896,517.738647 434.864655,488.309174 
	C423.743439,474.234711 417.689453,457.890625 417.653809,439.755829 
	C417.552307,388.093964 417.699524,336.431458 417.502289,284.770172 
	C417.481018,279.197815 419.889648,278.493896 424.420380,278.688019 
	C430.839691,278.963043 431.110596,278.966919 431.109711,285.013275 
	C431.103302,328.175507 431.075378,371.337769 431.051025,415.000000 
z"/>
<path fill="#000000" opacity="1.000000" stroke="none" 
	d="
M455.337341,308.000061 
	C455.335602,350.149384 455.329102,391.798645 455.333221,433.447937 
	C455.335846,459.968445 470.425415,479.780273 496.360229,485.779327 
	C520.143555,491.280670 541.343567,486.287292 558.069397,467.391571 
	C565.537109,458.954987 569.116089,449.087677 569.086609,437.692322 
	C568.961365,389.379517 569.036743,341.066193 569.041443,292.753052 
	C569.041687,290.254181 569.231506,287.742645 569.042297,285.259155 
	C568.672424,280.402893 570.430237,278.356293 575.613342,278.673096 
	C582.326111,279.083374 582.360779,278.761292 582.360413,285.834106 
	C582.358032,334.980255 581.528198,384.144806 582.629822,433.266083 
	C583.367065,466.141876 562.487549,487.126923 540.023865,496.301971 
	C507.915039,509.416473 469.375702,497.528839 450.926697,468.839996 
	C444.382599,458.663727 442.070160,447.361572 442.050323,435.535492 
	C441.966736,385.723145 442.014526,335.910583 442.022583,286.098083 
	C442.023651,279.542877 447.840149,276.116730 453.687714,279.152985 
	C455.614594,280.153473 455.286163,281.919128 455.297089,283.511475 
	C455.351929,291.507385 455.331207,299.503815 455.337341,308.000061 
z"/>
<path fill="#000000" opacity="1.000000" stroke="none" 
	d="
M682.303467,718.537476 
	C677.777100,707.239197 673.399048,696.293884 668.429932,683.870972 
	C661.730774,698.138367 655.606506,711.181458 649.482178,724.224487 
	C648.971741,724.295959 648.461243,724.367432 647.950806,724.438904 
	C638.535828,700.137512 629.120850,675.836121 619.463867,650.910156 
	C625.063843,649.310242 630.138611,649.788208 635.154053,650.326660 
	C637.316345,650.558716 637.612000,652.861206 638.199890,654.531433 
	C641.513062,663.943420 644.742188,673.385010 648.021790,682.808777 
	C648.670227,684.672119 649.414185,686.502197 650.601807,689.633545 
	C654.092712,681.055908 657.169189,673.606689 660.146423,666.118103 
	C661.125610,663.655273 659.342834,661.658936 658.621887,659.511169 
	C657.730347,656.854858 656.684387,654.250366 655.727356,651.682922 
	C663.107788,647.431885 669.720093,649.489929 672.617676,656.619812 
	C676.672241,666.596375 680.761475,676.559021 685.985596,686.548950 
	C688.536072,678.560181 691.089111,670.572205 693.634155,662.581726 
	C693.987244,661.473083 694.287842,660.347778 694.634521,659.236877 
	C697.705933,649.394226 701.976868,647.397705 713.270203,651.264954 
	C704.286072,675.455872 695.310059,699.624939 686.320923,723.829468 
	C683.193115,722.892517 683.411255,720.492249 682.303467,718.537476 
z"/>
<path fill="#000000" opacity="1.000000" stroke="none" 
	d="
M309.070129,684.000000 
	C309.351288,671.588928 308.439819,659.641235 309.731384,646.042358 
	C326.792084,661.634827 342.765472,676.233582 359.570190,691.592163 
	C359.570190,679.054565 359.630096,667.641418 359.546936,656.229309 
	C359.499756,649.758423 359.394165,649.759216 365.599976,649.709229 
	C375.054718,649.633057 375.053711,649.633057 375.051971,659.278381 
	C375.048431,678.927490 375.063202,698.576660 375.016235,718.225647 
	C375.011627,720.147949 375.531128,722.219482 373.414795,724.907776 
	C357.391693,710.479736 341.458649,696.132874 324.561096,680.917480 
	C324.561096,691.671265 324.560028,701.227173 324.565552,710.783020 
	C324.565735,711.114197 324.639801,711.444702 324.665863,711.776611 
	C325.471344,722.024841 321.885590,724.874268 311.801392,722.142700 
	C308.872192,721.349304 309.117889,719.067993 309.106323,716.971191 
	C309.046753,706.147705 309.072510,695.323792 309.070129,684.000000 
z"/>
<path fill="#000000" opacity="1.000000" stroke="none" 
	d="
M757.406860,675.591553 
	C762.961548,680.596558 768.262451,685.355835 773.618713,690.164795 
	C775.643433,688.132568 774.961609,686.023682 774.972473,684.158325 
	C775.028931,674.499939 775.055908,664.838440 774.856995,655.182861 
	C774.774231,651.165833 776.111572,649.552063 780.329285,649.634155 
	C791.559082,649.852783 790.256531,648.820435 790.286438,659.547852 
	C790.341187,679.198853 790.322327,698.850159 790.296082,718.501343 
	C790.293701,720.290527 790.716858,722.162964 789.068726,724.942200 
	C773.047791,710.545593 757.215820,696.318726 741.400818,682.107117 
	C739.504333,683.369751 740.216675,685.014954 740.210571,686.357361 
	C740.163452,696.682190 740.121704,707.009033 740.294617,717.331665 
	C740.356140,721.003052 738.977356,722.338684 735.323608,722.297974 
	C723.005554,722.160645 724.806274,722.973083 724.763306,711.960083 
	C724.687256,692.475647 724.728455,672.990845 724.755981,653.506165 
	C724.758545,651.708313 724.375366,649.839417 725.990173,646.870422 
	C736.540833,656.511230 746.846924,665.928528 757.406860,675.591553 
z"/>
<path fill="#000000" opacity="1.000000" stroke="none" 
	d="
M583.843628,649.786377 
	C600.177368,654.881042 610.046814,665.318726 612.350159,682.065857 
	C614.471252,697.487793 605.377808,712.961182 590.739624,719.672546 
	C576.393372,726.250061 559.773010,723.040833 549.005676,711.614197 
	C537.461487,699.363159 535.313232,682.240784 543.501648,667.745300 
	C551.540344,653.514832 567.293152,646.396973 583.843628,649.786377 
M563.457947,704.104797 
	C567.853394,707.280701 572.794312,708.175476 578.116760,707.825745 
	C589.687866,707.065369 597.902893,696.296265 596.707947,683.325073 
	C595.617493,671.488159 584.981934,662.418884 573.880981,663.778870 
	C564.689026,664.905090 558.469727,669.845398 555.639038,678.555603 
	C552.436462,688.409607 555.013550,696.874207 563.457947,704.104797 
z"/>
<path fill="#000000" opacity="1.000000" stroke="none" 
	d="
M465.632019,650.387695 
	C480.446655,664.038208 494.997040,677.459900 510.659241,691.907104 
	C510.659241,685.500488 510.657227,680.446655 510.659698,675.392883 
	C510.663208,668.232117 510.735931,661.070496 510.643585,653.911011 
	C510.605652,650.969177 511.761841,649.848694 514.743103,649.673706 
	C525.202881,649.059692 525.580566,648.960571 525.730774,659.132507 
	C526.033203,679.610962 525.879883,700.096252 525.891052,720.578735 
	C525.891663,721.714478 525.994812,722.932983 524.227478,724.677673 
	C508.361633,710.419678 492.431580,696.103943 476.485748,681.774109 
	C474.699982,683.416565 475.369049,685.188599 475.359406,686.740417 
	C475.296173,696.898315 475.230896,707.058472 475.396423,717.214172 
	C475.454132,720.753906 474.459290,722.355713 470.626923,722.312195 
	C458.576202,722.175415 460.695648,722.750671 460.644928,712.512512 
	C460.547577,692.862488 460.613159,673.211609 460.645050,653.561096 
	C460.647949,651.759827 460.286560,649.897644 461.154846,648.126648 
	C463.199188,647.503296 464.038544,649.348633 465.632019,650.387695 
z"/>
<path fill="#000000" opacity="1.000000" stroke="none" 
	d="
M409.352692,693.227905 
	C407.293976,694.846619 407.328247,696.855103 407.331940,698.879333 
	C407.343506,705.205383 407.222137,711.533691 407.360901,717.856567 
	C407.431793,721.085999 406.115662,722.161194 402.955139,722.303467 
	C391.839783,722.803833 391.851379,722.899109 391.857941,711.935364 
	C391.869019,693.456543 391.855865,674.977722 391.882080,656.498901 
	C391.891602,649.792603 391.966187,649.755371 398.493896,649.712280 
	C407.341858,649.653931 407.336914,649.653870 407.348999,658.674011 
	C407.356140,664.000549 407.375000,669.327087 407.419250,674.653381 
	C407.421478,674.922119 407.715302,675.188416 408.142212,675.910706 
	C414.315887,669.040283 420.658905,662.520203 426.335907,655.464172 
	C429.808258,651.148438 433.527496,648.984802 439.087036,649.640503 
	C442.310669,650.020691 445.615845,649.709534 448.851685,649.709534 
	C449.254059,652.856201 447.252808,653.962036 446.015198,655.329102 
	C438.867340,663.224915 431.662750,671.072266 424.329956,678.796082 
	C421.943573,681.309753 421.855865,683.172485 424.062622,685.995056 
	C431.647949,695.697266 438.949463,705.621948 446.317566,715.492859 
	C447.590363,717.197998 449.200684,718.734802 449.635101,720.958069 
	C441.702820,724.780334 431.998352,722.340149 427.192902,715.501709 
	C422.408478,708.693176 417.496521,701.973877 412.604462,695.241699 
	C411.864777,694.223694 411.350739,692.769531 409.352692,693.227905 
z"/>
<path fill="#000000" opacity="1.000000" stroke="none" 
	d="
M238.315445,649.722656 
	C249.417221,649.673218 249.391724,649.673218 249.402283,660.207031 
	C249.413116,671.033081 249.391663,681.860474 249.550140,692.684875 
	C249.688980,702.169373 255.111908,707.813049 263.778290,707.807373 
	C272.674408,707.801636 278.543518,701.862549 278.609222,692.533508 
	C278.697235,680.041687 278.757263,667.546387 278.545074,655.057434 
	C278.474274,650.888977 279.955902,649.219116 284.034790,649.690613 
	C285.019958,649.804504 286.044708,649.793091 287.028503,649.664734 
	C291.772339,649.046448 293.479553,650.975342 293.381531,655.824829 
	C293.118988,668.811707 293.348999,681.807739 293.276062,694.799561 
	C293.196747,708.929199 284.207001,719.454102 269.856628,722.399231 
	C255.978378,725.247437 242.043701,718.432800 236.585770,706.247253 
	C234.900391,702.484375 234.540207,698.572937 234.530746,694.550781 
	C234.499802,681.393494 234.415649,668.236145 234.428467,655.078857 
	C234.430801,652.678467 233.967148,649.744263 238.315445,649.722656 
z"/>
<path fill="#000000" opacity="1.000000" stroke="none" 
	d="
M350.793152,783.360962 
	C351.480164,785.601135 352.717133,787.293091 352.584412,789.510071 
	C349.448669,791.304749 347.698029,789.866638 346.616333,786.934814 
	C345.724854,784.518555 344.898590,782.269348 341.497650,782.747742 
	C338.119995,783.222778 333.973450,781.496948 332.690216,786.800598 
	C332.121674,789.150208 330.715607,791.139160 326.787872,789.330505 
	C330.899780,779.421814 335.005768,769.527405 339.111725,759.632996 
	C339.628113,759.605103 340.144501,759.577209 340.660889,759.549316 
	C343.985016,767.370667 347.309174,775.192017 350.793152,783.360962 
M340.926788,777.762146 
	C344.092834,775.009338 340.399475,773.490845 340.121185,770.421082 
	C338.426025,773.181030 337.367249,775.059570 337.220245,777.648743 
	C338.404877,777.723816 339.345886,777.783447 340.926788,777.762146 
z"/>
<path fill="#000000" opacity="1.000000" stroke="none" 
	d="
M567.733154,770.970337 
	C566.334045,766.503174 567.779480,763.390747 571.299866,761.257568 
	C575.428833,758.755615 579.612061,759.541077 583.681885,761.540894 
	C584.885559,762.132324 585.303711,763.137390 584.652893,764.444763 
	C584.013855,765.728455 583.024170,765.910583 581.737610,765.549744 
	C578.414734,764.617859 573.997986,762.745911 572.846802,767.319458 
	C571.822571,771.388855 576.821289,771.823547 579.639465,773.203979 
	C584.433716,775.552429 586.685242,779.164551 585.752136,783.426025 
	C584.782898,787.852478 581.373718,790.500977 576.232361,790.650391 
	C574.751526,790.693359 573.153381,790.649963 571.797668,790.142273 
	C569.647644,789.337280 565.887878,789.200562 566.703552,785.982483 
	C567.642639,782.277832 570.473328,785.364746 572.482056,785.539246 
	C573.475281,785.625549 574.465759,785.852051 575.455872,785.842896 
	C577.758423,785.821655 579.874512,785.254028 580.462219,782.660217 
	C581.009644,780.244080 579.328979,778.936462 577.487732,778.024963 
	C573.935486,776.266296 569.941223,775.191589 567.733154,770.970337 
z"/>
<path fill="#000000" opacity="1.000000" stroke="none" 
	d="
M366.684326,777.403198 
	C366.607269,774.110718 367.019653,771.649841 370.807190,773.059448 
	C372.290619,773.611572 373.408264,773.013611 374.603210,772.555969 
	C378.779297,770.956665 382.202209,772.211792 384.749115,775.565125 
	C387.166748,778.748230 387.226624,782.516907 385.406189,785.918457 
	C383.436279,789.599365 380.065735,791.251648 375.784851,790.537659 
	C374.652740,790.348816 373.536804,790.062988 372.432159,789.825684 
	C370.778625,791.180420 371.546387,792.972961 371.351044,794.529114 
	C371.146179,796.161133 371.386963,798.147156 368.916046,798.032227 
	C366.484100,797.919006 366.748566,795.883667 366.728516,794.296265 
	C366.659241,788.815063 366.689911,783.332642 366.684326,777.403198 
M377.152100,786.529236 
	C380.231354,785.555664 382.145599,783.593628 381.439362,780.245911 
	C380.898224,777.680603 378.819153,776.342529 376.235474,776.494141 
	C373.607178,776.648376 371.791626,778.372986 371.579041,780.925537 
	C371.308685,784.171265 372.938232,786.310913 377.152100,786.529236 
z"/>
<path fill="#000000" opacity="1.000000" stroke="none" 
	d="
M400.669159,781.121033 
	C400.673004,779.144287 400.719543,777.644653 400.672821,776.147949 
	C400.584229,773.309387 401.755432,771.919983 404.601624,773.029480 
	C406.264893,773.677856 407.534027,772.903198 408.895508,772.434204 
	C412.685516,771.128723 415.897949,772.133545 418.298492,775.111023 
	C420.932892,778.378479 421.153625,782.214417 419.294037,785.905334 
	C417.567444,789.332214 414.486938,790.882263 410.644867,790.649719 
	C409.175323,790.560852 407.723969,790.171387 406.242401,789.915039 
	C404.611481,791.699402 405.592041,793.813904 405.246338,795.689148 
	C405.015289,796.942566 404.646851,797.971008 403.191162,798.061462 
	C401.462860,798.168884 400.802490,797.099487 400.780548,795.581299 
	C400.713196,790.921082 400.702454,786.260132 400.669159,781.121033 
M405.797485,783.616516 
	C407.041748,785.867188 408.874390,787.136047 411.467712,786.381531 
	C414.080872,785.621216 415.822754,783.811157 415.468231,780.946106 
	C415.125854,778.179138 413.229370,776.299194 410.446930,776.500366 
	C406.729126,776.769287 404.950714,779.096191 405.797485,783.616516 
z"/>
<path fill="#000000" opacity="1.000000" stroke="none" 
	d="
M435.160187,787.706970 
	C432.137573,783.386841 432.014801,779.265503 435.076569,775.455505 
	C437.841522,772.014954 441.577087,770.750488 445.722321,772.795227 
	C447.900146,773.869507 450.690277,771.276001 452.189240,773.808899 
	C453.767670,776.476074 452.789581,779.657043 452.924255,782.609863 
	C452.999481,784.259460 452.881226,785.926331 452.731262,787.574585 
	C452.642456,788.550598 452.309296,790.125244 451.358337,789.934448 
	C446.083710,788.875977 440.144379,793.208679 435.160187,787.706970 
M446.517517,784.871521 
	C448.342010,782.164551 448.460785,779.473633 445.818512,777.331665 
	C443.735107,775.642822 441.342438,775.941772 439.509766,777.864014 
	C437.691559,779.770935 437.559204,782.171448 439.099121,784.270813 
	C440.916443,786.748352 443.297852,787.458679 446.517517,784.871521 
z"/>
<path fill="#000000" opacity="1.000000" stroke="none" 
	d="
M641.612793,786.327148 
	C637.576843,790.720764 633.031067,792.022766 629.024841,789.896667 
	C625.363037,787.953125 623.325500,784.838440 623.756653,780.553345 
	C624.231018,775.838135 627.066956,773.089111 631.563232,772.069397 
	C635.313599,771.218933 638.480713,772.564026 640.895325,775.392944 
	C643.658752,778.630554 643.939575,782.250366 641.612793,786.327148 
M636.705566,777.931274 
	C634.117310,775.621277 631.640442,775.697571 629.598999,778.548523 
	C627.910583,780.906555 628.472229,783.246155 630.421631,785.208740 
	C631.820374,786.616882 633.522522,787.102661 635.312073,785.874573 
	C638.064941,783.985413 638.379089,781.431763 636.705566,777.931274 
z"/>
<path fill="#000000" opacity="1.000000" stroke="none" 
	d="
M499.130859,784.978943 
	C500.505585,787.206238 502.222046,786.559265 503.994263,785.911987 
	C505.449310,785.380676 506.661285,785.763306 507.167389,787.330383 
	C507.638947,788.790649 506.549164,789.393555 505.484222,789.938049 
	C501.374695,792.039001 495.384277,790.102539 492.942627,785.886353 
	C490.540802,781.738770 491.874176,776.407227 496.005463,773.640137 
	C500.253448,770.794861 505.589386,771.446655 508.534332,775.173340 
	C510.766541,777.998169 510.780304,780.183533 506.910004,781.529846 
	C504.277008,782.445801 501.417328,782.852295 499.130859,784.978943 
M498.335754,777.453369 
	C497.682465,778.325378 496.602966,779.089417 497.697052,780.589783 
	C499.838837,779.845276 502.267609,779.691284 503.955139,777.602844 
	C502.161163,775.820190 500.519501,776.095642 498.335754,777.453369 
z"/>
<path fill="#000000" opacity="1.000000" stroke="none" 
	d="
M685.510376,789.670166 
	C680.098083,785.211304 679.215698,779.610474 682.939514,775.271729 
	C686.243652,771.421936 692.035583,770.778259 695.891541,773.873962 
	C697.481812,775.150696 698.902161,776.765930 698.772705,778.845337 
	C698.629395,781.146301 696.209229,781.071899 694.649231,781.808777 
	C692.464355,782.840820 689.789551,782.819214 687.967285,784.859436 
	C689.151306,787.226807 690.912537,786.411316 692.617249,785.868469 
	C694.118103,785.390625 695.305725,785.774780 695.748108,787.346619 
	C696.244446,789.110291 694.852783,789.683777 693.591370,790.087524 
	C691.003784,790.915649 688.393372,791.034912 685.510376,789.670166 
M691.938110,776.728943 
	C688.661560,775.590698 687.006775,777.111816 686.164429,779.990051 
	C688.371521,779.247192 691.537964,780.462463 691.938110,776.728943 
z"/>
<path fill="#000000" opacity="1.000000" stroke="none" 
	d="
M529.254761,766.094299 
	C529.246887,773.050171 529.274536,779.521118 529.208130,785.991089 
	C529.190125,787.745728 529.491516,790.005981 526.807373,790.093140 
	C523.833252,790.189880 523.999512,787.772949 523.978455,785.831299 
	C523.897339,778.366028 523.848572,770.898743 523.941772,763.434143 
	C523.968384,761.304443 523.187622,758.039734 526.684204,758.141663 
	C530.141052,758.242554 528.958252,761.500977 529.240051,763.619812 
	C529.326843,764.271973 529.254456,764.945374 529.254761,766.094299 
z"/>
<path fill="#000000" opacity="1.000000" stroke="none" 
	d="
M609.042969,777.127319 
	C605.896606,779.866577 607.595398,783.231445 607.134399,786.214722 
	C606.856689,788.012085 607.080811,790.183533 604.425110,790.115845 
	C601.837891,790.049927 601.919800,787.928528 601.811462,786.098083 
	C601.592896,782.405090 602.667664,778.452881 599.198792,775.470215 
	C598.463928,774.838257 599.029053,773.562683 599.972656,772.934814 
	C600.832703,772.362610 601.459717,771.711121 601.676819,770.624084 
	C602.088379,768.563660 600.858093,765.224121 604.446289,765.280518 
	C607.852295,765.334045 606.846436,768.618469 607.314880,770.713135 
	C607.564575,771.829956 608.366882,772.258728 609.322083,772.691406 
	C612.241882,774.013855 611.587036,775.494934 609.042969,777.127319 
z"/>
<path fill="#000000" opacity="1.000000" stroke="none" 
	d="
M472.342621,789.283813 
	C469.602020,790.814514 468.207947,789.858948 467.985352,787.289062 
	C467.785339,784.979980 467.732147,782.635315 467.883057,780.323914 
	C468.119568,776.701416 466.083832,771.000610 473.776886,773.671692 
	C475.025940,774.105286 476.619965,772.018250 478.504791,772.672852 
	C479.630219,774.000671 479.699158,776.003845 478.266296,776.465332 
	C472.416748,778.349243 473.206085,783.096313 472.947784,787.486023 
	C472.919159,787.972656 472.715759,788.448975 472.342621,789.283813 
z"/>
<path fill="#000000" opacity="1.000000" stroke="none" 
	d="
M656.722229,776.383301 
	C656.759399,773.722412 657.787048,772.066101 660.023132,773.034058 
	C661.979614,773.880859 663.362915,773.580872 665.046814,772.727234 
	C666.106201,772.190125 667.390991,772.125366 667.918091,773.612000 
	C668.359741,774.857605 667.944946,776.141296 666.778015,776.555603 
	C661.621826,778.386353 661.202209,782.500977 661.417053,787.024292 
	C661.489319,788.545227 661.517883,790.128662 659.305847,790.164856 
	C657.290405,790.197815 656.809509,788.869934 656.783142,787.239990 
	C656.726990,783.772034 656.730591,780.303101 656.722229,776.383301 
z"/>
</svg>